# xmcd CD database file
#
# Track frame offsets:
#	150
#	22605
#	42397
#	65145
#	85805
#	108450
#	127227
#	147365
#	165315
#	187632
#	204100
#	222702
#
# Disc length: 3239 seconds
#
# Revision: 0
# Processed by: cddbd v1.5.2PL0 Copyright (c) Steve Scherf et al.
# Submitted via: CDex 1.51
#
DISCID=a50ca50c
DTITLE=El Gran Combo - Del Combo para Colombia
DYEAR=1999
DGENRE=Salsa
TTITLE0=Un Verano en Nueva York
TTITLE1=La Muerte
TTITLE2=Carbonerito
TTITLE3=Esos Ojitos Negros
TTITLE4=Y no hago mas na'
TTITLE5=Azuquita pa'l cafe
TTITLE6=Timbalero
TTITLE7=La fiesta de pilito
TTITLE8=Se me fue
TTITLE9=Hojas blancas
TTITLE10=Con eso
TTITLE11=Jibaro Listo
EXTD=YEAR: 1999
EXTT0=
EXTT1=
EXTT2=
EXTT3=
EXTT4=
EXTT5=
EXTT6=
EXTT7=
EXTT8=
EXTT9=
EXTT10=
EXTT11=
PLAYORDER=
